<svg width="48" height="48" viewBox="0 0 48 48" fill="none" xmlns="http://www.w3.org/2000/svg">
<path d="M4 19.6631C4 11.0126 11.0126 4 19.6631 4C28.3135 4 35.3261 11.0126 35.3261 19.6631C35.3261 23.3243 34.07 26.6921 31.9651 29.3591L44 41.394L41.394 44L29.3591 31.9651C26.6921 34.07 23.3243 35.3261 19.6631 35.3261C11.0126 35.3261 4 28.3135 4 19.6631ZM19.6631 7.68543C13.048 7.68543 7.68543 13.048 7.68543 19.6631C7.68543 26.2781 13.048 31.6407 19.6631 31.6407C26.2781 31.6407 31.6407 26.2781 31.6407 19.6631C31.6407 13.048 26.2781 7.68543 19.6631 7.68543Z" fill="#8E8E8E"/>
</svg>
